<?xml version="1.0" encoding="UTF-8" standalone="no"?>
<!DOCTYPE svg PUBLIC "-//W3C//DTD SVG 1.1//EN"
 "http://www.w3.org/Graphics/SVG/1.1/DTD/svg11.dtd">
<!-- Generated by graphviz version 2.38.0 (20140413.2041)
 -->
<!-- Title: controllers_diagram Pages: 1 -->
<svg width="576pt" height="443pt"
 viewBox="0.00 0.00 575.85 443.00" xmlns="http://www.w3.org/2000/svg" xmlns:xlink="http://www.w3.org/1999/xlink">
<g id="graph0" class="graph" transform="scale(1 1) rotate(0) translate(229.166 229.5)">
<title>controllers_diagram</title>
<polygon fill="none" stroke="none" points="-229.166,213.5 -229.166,-229.5 346.688,-229.5 346.688,213.5 -229.166,213.5"/>
<!-- _diagram_info -->
<g id="node1" class="node"><title>_diagram_info</title>
<text text-anchor="start" x="143.312" y="-194.1" font-family="Times,serif" font-size="13.00">Controllers diagram</text>
<text text-anchor="start" x="143.312" y="-181.1" font-family="Times,serif" font-size="13.00">Date: Sep 17 2015 &#45; 17:13</text>
<text text-anchor="start" x="143.312" y="-168.1" font-family="Times,serif" font-size="13.00">Migration version: 20150917205928</text>
<text text-anchor="start" x="143.312" y="-155.1" font-family="Times,serif" font-size="13.00">Generated by RailRoady 1.3.1</text>
<text text-anchor="start" x="143.312" y="-142.1" font-family="Times,serif" font-size="13.00">http://railroady.prestonlee.com</text>
</g>
<!-- ApplicationController -->
<g id="node2" class="node"><title>ApplicationController</title>
<path fill="none" stroke="black" d="M-62.8208,-121C-62.8208,-121 52.8208,-121 52.8208,-121 58.8208,-121 64.8208,-127 64.8208,-133 64.8208,-133 64.8208,-213 64.8208,-213 64.8208,-219 58.8208,-225 52.8208,-225 52.8208,-225 -62.8208,-225 -62.8208,-225 -68.8208,-225 -74.8208,-219 -74.8208,-213 -74.8208,-213 -74.8208,-133 -74.8208,-133 -74.8208,-127 -68.8208,-121 -62.8208,-121"/>
<text text-anchor="middle" x="-5" y="-209.8" font-family="Times,serif" font-size="14.00">ApplicationController</text>
<polyline fill="none" stroke="black" points="-74.8208,-203 64.8208,-203 "/>
<text text-anchor="start" x="-66.8208" y="-187.8" font-family="Times,serif" font-size="14.00">current_user</text>
<text text-anchor="start" x="-66.8208" y="-173.8" font-family="Times,serif" font-size="14.00">logged_in?</text>
<polyline fill="none" stroke="black" points="-74.8208,-167 64.8208,-167 "/>
<polyline fill="none" stroke="black" points="-74.8208,-143 64.8208,-143 "/>
<text text-anchor="start" x="-66.8208" y="-127.8" font-family="Times,serif" font-size="14.00">_layout</text>
</g>
<!-- CharactersController -->
<g id="node3" class="node"><title>CharactersController</title>
<path fill="none" stroke="black" d="M-62.7002,104C-62.7002,104 46.7002,104 46.7002,104 52.7002,104 58.7002,98 58.7002,92 58.7002,92 58.7002,-72 58.7002,-72 58.7002,-78 52.7002,-84 46.7002,-84 46.7002,-84 -62.7002,-84 -62.7002,-84 -68.7002,-84 -74.7002,-78 -74.7002,-72 -74.7002,-72 -74.7002,92 -74.7002,92 -74.7002,98 -68.7002,104 -62.7002,104"/>
<text text-anchor="middle" x="-8" y="-68.8" font-family="Times,serif" font-size="14.00">CharactersController</text>
<polyline fill="none" stroke="black" points="-74.7002,-62 58.7002,-62 "/>
<text text-anchor="start" x="-66.7002" y="-46.8" font-family="Times,serif" font-size="14.00">create</text>
<text text-anchor="start" x="-66.7002" y="-32.8" font-family="Times,serif" font-size="14.00">destroy</text>
<text text-anchor="start" x="-66.7002" y="-18.8" font-family="Times,serif" font-size="14.00">edit</text>
<text text-anchor="start" x="-66.7002" y="-4.8" font-family="Times,serif" font-size="14.00">index</text>
<text text-anchor="start" x="-66.7002" y="9.2" font-family="Times,serif" font-size="14.00">new</text>
<text text-anchor="start" x="-66.7002" y="23.2" font-family="Times,serif" font-size="14.00">show</text>
<text text-anchor="start" x="-66.7002" y="37.2" font-family="Times,serif" font-size="14.00">update</text>
<polyline fill="none" stroke="black" points="-74.7002,44 58.7002,44 "/>
<polyline fill="none" stroke="black" points="-74.7002,68 58.7002,68 "/>
<text text-anchor="start" x="-66.7002" y="83.2" font-family="Times,serif" font-size="14.00">_layout</text>
<text text-anchor="start" x="-66.7002" y="97.2" font-family="Times,serif" font-size="14.00">character_params</text>
</g>
<!-- HousesController -->
<g id="node4" class="node"><title>HousesController</title>
<path fill="none" stroke="black" d="M101.617,89C101.617,89 192.383,89 192.383,89 198.383,89 204.383,83 204.383,77 204.383,77 204.383,-87 204.383,-87 204.383,-93 198.383,-99 192.383,-99 192.383,-99 101.617,-99 101.617,-99 95.6172,-99 89.6172,-93 89.6172,-87 89.6172,-87 89.6172,77 89.6172,77 89.6172,83 95.6172,89 101.617,89"/>
<text text-anchor="middle" x="147" y="-83.8" font-family="Times,serif" font-size="14.00">HousesController</text>
<polyline fill="none" stroke="black" points="89.6172,-77 204.383,-77 "/>
<text text-anchor="start" x="97.6172" y="-61.8" font-family="Times,serif" font-size="14.00">create</text>
<text text-anchor="start" x="97.6172" y="-47.8" font-family="Times,serif" font-size="14.00">destroy</text>
<text text-anchor="start" x="97.6172" y="-33.8" font-family="Times,serif" font-size="14.00">edit</text>
<text text-anchor="start" x="97.6172" y="-19.8" font-family="Times,serif" font-size="14.00">index</text>
<text text-anchor="start" x="97.6172" y="-5.8" font-family="Times,serif" font-size="14.00">new</text>
<text text-anchor="start" x="97.6172" y="8.2" font-family="Times,serif" font-size="14.00">show</text>
<text text-anchor="start" x="97.6172" y="22.2" font-family="Times,serif" font-size="14.00">update</text>
<polyline fill="none" stroke="black" points="89.6172,29 204.383,29 "/>
<polyline fill="none" stroke="black" points="89.6172,53 204.383,53 "/>
<text text-anchor="start" x="97.6172" y="68.2" font-family="Times,serif" font-size="14.00">_layout</text>
<text text-anchor="start" x="97.6172" y="82.2" font-family="Times,serif" font-size="14.00">house_params</text>
</g>
<!-- SessionController -->
<g id="node5" class="node"><title>SessionController</title>
<path fill="none" stroke="black" d="M-213.166,-1C-213.166,-1 -120.834,-1 -120.834,-1 -114.834,-1 -108.834,-7 -108.834,-13 -108.834,-13 -108.834,-107 -108.834,-107 -108.834,-113 -114.834,-119 -120.834,-119 -120.834,-119 -213.166,-119 -213.166,-119 -219.166,-119 -225.166,-113 -225.166,-107 -225.166,-107 -225.166,-13 -225.166,-13 -225.166,-7 -219.166,-1 -213.166,-1"/>
<text text-anchor="middle" x="-167" y="-103.8" font-family="Times,serif" font-size="14.00">SessionController</text>
<polyline fill="none" stroke="black" points="-225.166,-97 -108.834,-97 "/>
<text text-anchor="start" x="-217.166" y="-81.8" font-family="Times,serif" font-size="14.00">create</text>
<text text-anchor="start" x="-217.166" y="-67.8" font-family="Times,serif" font-size="14.00">destroy</text>
<text text-anchor="start" x="-217.166" y="-53.8" font-family="Times,serif" font-size="14.00">new</text>
<polyline fill="none" stroke="black" points="-225.166,-47 -108.834,-47 "/>
<polyline fill="none" stroke="black" points="-225.166,-23 -108.834,-23 "/>
<text text-anchor="start" x="-217.166" y="-7.8" font-family="Times,serif" font-size="14.00">_layout</text>
</g>
<!-- UsersController -->
<g id="node6" class="node"><title>UsersController</title>
<path fill="none" stroke="black" d="M-197.714,149C-197.714,149 -116.286,149 -116.286,149 -110.286,149 -104.286,143 -104.286,137 -104.286,137 -104.286,43 -104.286,43 -104.286,37 -110.286,31 -116.286,31 -116.286,31 -197.714,31 -197.714,31 -203.714,31 -209.714,37 -209.714,43 -209.714,43 -209.714,137 -209.714,137 -209.714,143 -203.714,149 -197.714,149"/>
<text text-anchor="middle" x="-157" y="46.2" font-family="Times,serif" font-size="14.00">UsersController</text>
<polyline fill="none" stroke="black" points="-209.714,53 -104.286,53 "/>
<text text-anchor="start" x="-201.714" y="68.2" font-family="Times,serif" font-size="14.00">create</text>
<text text-anchor="start" x="-201.714" y="82.2" font-family="Times,serif" font-size="14.00">new</text>
<polyline fill="none" stroke="black" points="-209.714,89 -104.286,89 "/>
<polyline fill="none" stroke="black" points="-209.714,113 -104.286,113 "/>
<text text-anchor="start" x="-201.714" y="128.2" font-family="Times,serif" font-size="14.00">_layout</text>
<text text-anchor="start" x="-201.714" y="142.2" font-family="Times,serif" font-size="14.00">user_params</text>
</g>
<!-- WelcomeController -->
<g id="node7" class="node"><title>WelcomeController</title>
<path fill="none" stroke="black" d="M101.967,209C101.967,209 204.033,209 204.033,209 210.033,209 216.033,203 216.033,197 216.033,197 216.033,129 216.033,129 216.033,123 210.033,117 204.033,117 204.033,117 101.967,117 101.967,117 95.9673,117 89.9673,123 89.9673,129 89.9673,129 89.9673,197 89.9673,197 89.9673,203 95.9673,209 101.967,209"/>
<text text-anchor="middle" x="153" y="132.2" font-family="Times,serif" font-size="14.00">WelcomeController</text>
<polyline fill="none" stroke="black" points="89.9673,139 216.033,139 "/>
<polyline fill="none" stroke="black" points="89.9673,163 216.033,163 "/>
<polyline fill="none" stroke="black" points="89.9673,187 216.033,187 "/>
<text text-anchor="start" x="97.9673" y="202.2" font-family="Times,serif" font-size="14.00">_layout</text>
</g>
</g>
</svg>
