<?xml version="1.0" encoding="UTF-8" standalone="no"?>
<!DOCTYPE svg PUBLIC "-//W3C//DTD SVG 1.1//EN"
 "http://www.w3.org/Graphics/SVG/1.1/DTD/svg11.dtd">
<!-- Generated by graphviz version 2.38.0 (20140413.2041)
 -->
<!-- Title: models_diagram Pages: 1 -->
<svg width="1001pt" height="297pt"
 viewBox="0.00 0.00 1000.82 297.00" xmlns="http://www.w3.org/2000/svg" xmlns:xlink="http://www.w3.org/1999/xlink">
<g id="graph0" class="graph" transform="scale(1 1) rotate(0) translate(4 293)">
<title>models_diagram</title>
<polygon fill="none" stroke="none" points="-4,4 -4,-293 996.818,-293 996.818,4 -4,4"/>
<!-- _diagram_info -->
<g id="node1" class="node"><title>_diagram_info</title>
<text text-anchor="start" x="8" y="-274.6" font-family="Times,serif" font-size="13.00">Models diagram</text>
<text text-anchor="start" x="8" y="-261.6" font-family="Times,serif" font-size="13.00">Date: Sep 17 2015 &#45; 17:13</text>
<text text-anchor="start" x="8" y="-248.6" font-family="Times,serif" font-size="13.00">Migration version: 20150917205928</text>
<text text-anchor="start" x="8" y="-235.6" font-family="Times,serif" font-size="13.00">Generated by RailRoady 1.3.1</text>
<text text-anchor="start" x="8" y="-222.6" font-family="Times,serif" font-size="13.00">http://railroady.prestonlee.com</text>
</g>
<!-- Ability -->
<g id="node2" class="node"><title>Ability</title>
<ellipse fill="none" stroke="black" cx="157.688" cy="-18" rx="35.3303" ry="18"/>
<text text-anchor="middle" x="157.688" y="-13.8" font-family="Times,serif" font-size="14.00">Ability</text>
</g>
<!-- AbilityName -->
<g id="node3" class="node"><title>AbilityName</title>
<ellipse fill="none" stroke="black" cx="83.6877" cy="-162" rx="56.0614" ry="18"/>
<text text-anchor="middle" x="83.6877" y="-157.8" font-family="Times,serif" font-size="14.00">AbilityName</text>
</g>
<!-- AbilityName&#45;&gt;Ability -->
<g id="edge1" class="edge"><title>AbilityName&#45;&gt;Ability</title>
<path fill="none" stroke="#a65ae1" d="M96.2341,-136.925C109.569,-111.336 130.577,-71.0229 144.244,-44.7966"/>
<ellipse fill="none" stroke="#a65ae1" cx="94.3157" cy="-140.606" rx="4.00002" ry="4.00002"/>
<polygon fill="#a65ae1" stroke="#a65ae1" points="144.298,-44.6931 152.91,-37.9046 146.609,-40.259 148.92,-35.825 148.92,-35.825 148.92,-35.825 146.609,-40.259 144.929,-33.7453 144.298,-44.6931 144.298,-44.6931"/>
</g>
<!-- Character -->
<g id="node5" class="node"><title>Character</title>
<ellipse fill="none" stroke="black" cx="193.688" cy="-90" rx="44.4491" ry="18"/>
<text text-anchor="middle" x="193.688" y="-85.8" font-family="Times,serif" font-size="14.00">Character</text>
</g>
<!-- AbilityName&#45;&gt;Character -->
<g id="edge2" class="edge"><title>AbilityName&#45;&gt;Character</title>
<path fill="none" stroke="#b133f1" d="M116.583,-140.067C131.037,-130.869 147.934,-120.116 162.22,-111.025"/>
<polygon fill="#b133f1" stroke="#b133f1" points="116.264,-140.269 105.412,-141.842 112.046,-142.954 107.828,-145.638 107.828,-145.638 107.828,-145.638 112.046,-142.954 110.244,-149.435 116.264,-140.269 116.264,-140.269"/>
<polygon fill="#b133f1" stroke="#b133f1" points="162.296,-110.977 173.149,-109.404 166.514,-108.292 170.733,-105.608 170.733,-105.608 170.733,-105.608 166.514,-108.292 168.317,-101.811 162.296,-110.977 162.296,-110.977"/>
</g>
<!-- Age -->
<g id="node4" class="node"><title>Age</title>
<ellipse fill="none" stroke="black" cx="413.688" cy="-252.5" rx="27" ry="18"/>
<text text-anchor="middle" x="413.688" y="-248.3" font-family="Times,serif" font-size="14.00">Age</text>
</g>
<!-- Character&#45;&gt;Ability -->
<g id="edge3" class="edge"><title>Character&#45;&gt;Ability</title>
<path fill="none" stroke="#77fc12" d="M181.198,-64.7144C177.9,-58.3016 174.329,-51.3577 170.99,-44.8648"/>
<ellipse fill="none" stroke="#77fc12" cx="183.144" cy="-68.4978" rx="4.00002" ry="4.00002"/>
<polygon fill="#77fc12" stroke="#77fc12" points="170.896,-44.6819 170.324,-33.7309 168.609,-40.2354 166.322,-35.789 166.322,-35.789 166.322,-35.789 168.609,-40.2354 162.32,-37.8471 170.896,-44.6819 170.896,-44.6819"/>
</g>
<!-- CharacterMaintenance -->
<g id="node6" class="node"><title>CharacterMaintenance</title>
<polygon fill="none" stroke="black" stroke-dasharray="1,5" points="600.892,-270.5 458.483,-270.5 458.483,-234.5 600.892,-234.5 600.892,-270.5"/>
<text text-anchor="middle" x="529.688" y="-248.3" font-family="Times,serif" font-size="14.00">CharacterMaintenance</text>
</g>
<!-- Gender -->
<g id="node7" class="node"><title>Gender</title>
<ellipse fill="none" stroke="black" cx="193.688" cy="-162" rx="36.2645" ry="18"/>
<text text-anchor="middle" x="193.688" y="-157.8" font-family="Times,serif" font-size="14.00">Gender</text>
</g>
<!-- Gender&#45;&gt;Character -->
<g id="edge4" class="edge"><title>Gender&#45;&gt;Character</title>
<path fill="none" stroke="#149e11" d="M193.688,-135.64C193.688,-130.063 193.688,-124.132 193.688,-118.476"/>
<ellipse fill="none" stroke="#149e11" cx="193.688" cy="-139.697" rx="4" ry="4"/>
<polygon fill="#149e11" stroke="#149e11" points="193.688,-118.104 198.188,-108.104 193.688,-113.104 193.688,-108.104 193.688,-108.104 193.688,-108.104 193.688,-113.104 189.188,-108.104 193.688,-118.104 193.688,-118.104"/>
</g>
<!-- House -->
<g id="node8" class="node"><title>House</title>
<ellipse fill="none" stroke="black" cx="280.688" cy="-162" rx="32.9081" ry="18"/>
<text text-anchor="middle" x="280.688" y="-157.8" font-family="Times,serif" font-size="14.00">House</text>
</g>
<!-- House&#45;&gt;Character -->
<g id="edge5" class="edge"><title>House&#45;&gt;Character</title>
<path fill="none" stroke="#88e35c" d="M256.214,-141.309C245.181,-132.431 232.114,-121.918 220.786,-112.803"/>
<ellipse fill="none" stroke="#88e35c" cx="259.545" cy="-143.988" rx="4.00002" ry="4.00002"/>
<polygon fill="#88e35c" stroke="#88e35c" points="220.689,-112.725 215.719,-102.951 216.794,-109.591 212.898,-106.457 212.898,-106.457 212.898,-106.457 216.794,-109.591 210.077,-109.963 220.689,-112.725 220.689,-112.725"/>
</g>
<!-- HouseMaintenance -->
<g id="node9" class="node"><title>HouseMaintenance</title>
<polygon fill="none" stroke="black" stroke-dasharray="1,5" points="742.757,-270.5 618.618,-270.5 618.618,-234.5 742.757,-234.5 742.757,-270.5"/>
<text text-anchor="middle" x="680.688" y="-248.3" font-family="Times,serif" font-size="14.00">HouseMaintenance</text>
</g>
<!-- Region -->
<g id="node10" class="node"><title>Region</title>
<ellipse fill="none" stroke="black" cx="260.688" cy="-252.5" rx="35.806" ry="18"/>
<text text-anchor="middle" x="260.688" y="-248.3" font-family="Times,serif" font-size="14.00">Region</text>
</g>
<!-- Region&#45;&gt;House -->
<g id="edge6" class="edge"><title>Region&#45;&gt;House</title>
<path fill="none" stroke="#d037aa" d="M266.314,-226.603C268.888,-215.215 271.943,-201.696 274.573,-190.057"/>
<ellipse fill="none" stroke="#d037aa" cx="265.426" cy="-230.535" rx="4.00001" ry="4.00001"/>
<polygon fill="#d037aa" stroke="#d037aa" points="274.639,-189.765 281.233,-181.003 275.741,-184.888 276.843,-180.011 276.843,-180.011 276.843,-180.011 275.741,-184.888 272.454,-179.019 274.639,-189.765 274.639,-189.765"/>
</g>
<!-- Specialty -->
<g id="node11" class="node"><title>Specialty</title>
<ellipse fill="none" stroke="black" cx="803.688" cy="-252.5" rx="43.0301" ry="18"/>
<text text-anchor="middle" x="803.688" y="-248.3" font-family="Times,serif" font-size="14.00">Specialty</text>
</g>
<!-- SpecialtyName -->
<g id="node12" class="node"><title>SpecialtyName</title>
<ellipse fill="none" stroke="black" cx="928.688" cy="-252.5" rx="64.2614" ry="18"/>
<text text-anchor="middle" x="928.688" y="-248.3" font-family="Times,serif" font-size="14.00">SpecialtyName</text>
</g>
<!-- User -->
<g id="node13" class="node"><title>User</title>
<ellipse fill="none" stroke="black" cx="341.688" cy="-252.5" rx="27" ry="18"/>
<text text-anchor="middle" x="341.688" y="-248.3" font-family="Times,serif" font-size="14.00">User</text>
</g>
<!-- User&#45;&gt;Character -->
<g id="edge8" class="edge"><title>User&#45;&gt;Character</title>
<path fill="none" stroke="#63c9c1" d="M343.77,-224.091C344.093,-200.405 340.83,-166.529 322.688,-144 303.415,-120.067 271.546,-106.837 244.307,-99.5813"/>
<polygon fill="#63c9c1" stroke="#63c9c1" points="343.767,-224.185 338.913,-234.018 343.589,-229.182 343.41,-234.178 343.41,-234.178 343.41,-234.178 343.589,-229.182 347.907,-234.339 343.767,-224.185 343.767,-224.185"/>
<polygon fill="#63c9c1" stroke="#63c9c1" points="244.223,-99.5607 235.59,-92.8 239.368,-98.3651 234.513,-97.1695 234.513,-97.1695 234.513,-97.1695 239.368,-98.3651 233.437,-101.539 244.223,-99.5607 244.223,-99.5607"/>
</g>
<!-- User&#45;&gt;House -->
<g id="edge7" class="edge"><title>User&#45;&gt;House</title>
<path fill="none" stroke="#d168d8" d="M326.099,-228.884C317.361,-216.206 306.456,-200.386 297.523,-187.425"/>
<ellipse fill="none" stroke="#d168d8" cx="328.512" cy="-232.385" rx="4.00002" ry="4.00002"/>
<polygon fill="#d168d8" stroke="#d168d8" points="297.38,-187.217 295.41,-176.43 294.542,-183.1 291.705,-178.983 291.705,-178.983 291.705,-178.983 294.542,-183.1 287.999,-181.537 297.38,-187.217 297.38,-187.217"/>
</g>
</g>
</svg>
