<?xml version="1.0" encoding="UTF-8" standalone="no"?>
<!DOCTYPE svg PUBLIC "-//W3C//DTD SVG 1.1//EN"
 "http://www.w3.org/Graphics/SVG/1.1/DTD/svg11.dtd">
<!-- Generated by graphviz version 2.38.0 (20140413.2041)
 -->
<!-- Title: models_diagram Pages: 1 -->
<svg width="1366pt" height="688pt"
 viewBox="0.00 0.00 1366.12 688.00" xmlns="http://www.w3.org/2000/svg" xmlns:xlink="http://www.w3.org/1999/xlink">
<g id="graph0" class="graph" transform="scale(1 1) rotate(0) translate(4 684)">
<title>models_diagram</title>
<polygon fill="none" stroke="none" points="-4,4 -4,-684 1362.12,-684 1362.12,4 -4,4"/>
<!-- _diagram_info -->
<g id="node1" class="node"><title>_diagram_info</title>
<text text-anchor="start" x="20.8176" y="-616.6" font-family="Times,serif" font-size="13.00">Models diagram</text>
<text text-anchor="start" x="20.8176" y="-603.6" font-family="Times,serif" font-size="13.00">Date: Sep 17 2015 &#45; 17:13</text>
<text text-anchor="start" x="20.8176" y="-590.6" font-family="Times,serif" font-size="13.00">Migration version: 20150917205928</text>
<text text-anchor="start" x="20.8176" y="-577.6" font-family="Times,serif" font-size="13.00">Generated by RailRoady 1.3.1</text>
<text text-anchor="start" x="20.8176" y="-564.6" font-family="Times,serif" font-size="13.00">http://railroady.prestonlee.com</text>
</g>
<!-- Ability -->
<g id="node2" class="node"><title>Ability</title>
<path fill="none" stroke="black" d="M104.886,-0.5C104.886,-0.5 234.125,-0.5 234.125,-0.5 240.125,-0.5 246.125,-6.5 246.125,-12.5 246.125,-12.5 246.125,-74.5 246.125,-74.5 246.125,-80.5 240.125,-86.5 234.125,-86.5 234.125,-86.5 104.886,-86.5 104.886,-86.5 98.8862,-86.5 92.8862,-80.5 92.8862,-74.5 92.8862,-74.5 92.8862,-12.5 92.8862,-12.5 92.8862,-6.5 98.8862,-0.5 104.886,-0.5"/>
<text text-anchor="middle" x="169.505" y="-71.3" font-family="Times,serif" font-size="14.00">Ability</text>
<polyline fill="none" stroke="black" points="92.8862,-64.5 246.125,-64.5 "/>
<text text-anchor="start" x="100.886" y="-49.3" font-family="Times,serif" font-size="14.00">id :integer</text>
<text text-anchor="start" x="100.886" y="-35.3" font-family="Times,serif" font-size="14.00">character_id :integer</text>
<text text-anchor="start" x="100.886" y="-21.3" font-family="Times,serif" font-size="14.00">ability_name_id :integer</text>
<text text-anchor="start" x="100.886" y="-7.3" font-family="Times,serif" font-size="14.00">rank :integer</text>
</g>
<!-- AbilityName -->
<g id="node3" class="node"><title>AbilityName</title>
<path fill="none" stroke="black" d="M12,-358.5C12,-358.5 121.011,-358.5 121.011,-358.5 127.011,-358.5 133.011,-364.5 133.011,-370.5 133.011,-370.5 133.011,-446.5 133.011,-446.5 133.011,-452.5 127.011,-458.5 121.011,-458.5 121.011,-458.5 12,-458.5 12,-458.5 6,-458.5 0,-452.5 0,-446.5 0,-446.5 0,-370.5 0,-370.5 0,-364.5 6,-358.5 12,-358.5"/>
<text text-anchor="middle" x="66.5054" y="-443.3" font-family="Times,serif" font-size="14.00">AbilityName</text>
<polyline fill="none" stroke="black" points="0,-436.5 133.011,-436.5 "/>
<text text-anchor="start" x="8" y="-421.3" font-family="Times,serif" font-size="14.00">id :integer</text>
<text text-anchor="start" x="8" y="-407.3" font-family="Times,serif" font-size="14.00">name :string</text>
<text text-anchor="start" x="8" y="-393.3" font-family="Times,serif" font-size="14.00">description :text</text>
<text text-anchor="start" x="8" y="-379.3" font-family="Times,serif" font-size="14.00">created_at :datetime</text>
<text text-anchor="start" x="8" y="-365.3" font-family="Times,serif" font-size="14.00">updated_at :datetime</text>
</g>
<!-- AbilityName&#45;&gt;Ability -->
<g id="edge1" class="edge"><title>AbilityName&#45;&gt;Ability</title>
<path fill="none" stroke="#4b5c94" d="M80.0469,-350.393C94.0904,-292.66 117.342,-201.061 141.505,-123 144.208,-114.27 147.281,-105.07 150.377,-96.163"/>
<ellipse fill="none" stroke="#4b5c94" cx="79.0699" cy="-354.422" rx="4.00001" ry="4.00001"/>
<polygon fill="#4b5c94" stroke="#4b5c94" points="150.406,-96.0804 157.974,-88.1446 152.068,-91.3647 153.73,-86.6489 153.73,-86.6489 153.73,-86.6489 152.068,-91.3647 149.486,-85.1533 150.406,-96.0804 150.406,-96.0804"/>
</g>
<!-- Character -->
<g id="node5" class="node"><title>Character</title>
<path fill="none" stroke="black" d="M163,-123.5C163,-123.5 272.011,-123.5 272.011,-123.5 278.011,-123.5 284.011,-129.5 284.011,-135.5 284.011,-135.5 284.011,-295.5 284.011,-295.5 284.011,-301.5 278.011,-307.5 272.011,-307.5 272.011,-307.5 163,-307.5 163,-307.5 157,-307.5 151,-301.5 151,-295.5 151,-295.5 151,-135.5 151,-135.5 151,-129.5 157,-123.5 163,-123.5"/>
<text text-anchor="middle" x="217.505" y="-292.3" font-family="Times,serif" font-size="14.00">Character</text>
<polyline fill="none" stroke="black" points="151,-285.5 284.011,-285.5 "/>
<text text-anchor="start" x="159" y="-270.3" font-family="Times,serif" font-size="14.00">id :integer</text>
<text text-anchor="start" x="159" y="-256.3" font-family="Times,serif" font-size="14.00">name :string</text>
<text text-anchor="start" x="159" y="-242.3" font-family="Times,serif" font-size="14.00">surname :string</text>
<text text-anchor="start" x="159" y="-228.3" font-family="Times,serif" font-size="14.00">age_id :integer</text>
<text text-anchor="start" x="159" y="-214.3" font-family="Times,serif" font-size="14.00">gender_id :integer</text>
<text text-anchor="start" x="159" y="-200.3" font-family="Times,serif" font-size="14.00">house_id :integer</text>
<text text-anchor="start" x="159" y="-186.3" font-family="Times,serif" font-size="14.00">description :text</text>
<text text-anchor="start" x="159" y="-172.3" font-family="Times,serif" font-size="14.00">history :text</text>
<text text-anchor="start" x="159" y="-158.3" font-family="Times,serif" font-size="14.00">user_id :integer</text>
<text text-anchor="start" x="159" y="-144.3" font-family="Times,serif" font-size="14.00">created_at :datetime</text>
<text text-anchor="start" x="159" y="-130.3" font-family="Times,serif" font-size="14.00">updated_at :datetime</text>
</g>
<!-- AbilityName&#45;&gt;Character -->
<g id="edge2" class="edge"><title>AbilityName&#45;&gt;Character</title>
<path fill="none" stroke="#dc8ad7" d="M111.714,-350.315C122.12,-337.153 133.446,-322.827 144.693,-308.601"/>
<polygon fill="#dc8ad7" stroke="#dc8ad7" points="111.593,-350.468 101.862,-355.522 108.493,-354.39 105.392,-358.313 105.392,-358.313 105.392,-358.313 108.493,-354.39 108.922,-361.104 111.593,-350.468 111.593,-350.468"/>
<polygon fill="#dc8ad7" stroke="#dc8ad7" points="144.724,-308.561 154.456,-303.507 147.825,-304.639 150.926,-300.716 150.926,-300.716 150.926,-300.716 147.825,-304.639 147.396,-297.925 144.724,-308.561 144.724,-308.561"/>
</g>
<!-- Age -->
<g id="node4" class="node"><title>Age</title>
<path fill="none" stroke="black" d="M567.542,-509.5C567.542,-509.5 687.469,-509.5 687.469,-509.5 693.469,-509.5 699.469,-515.5 699.469,-521.5 699.469,-521.5 699.469,-667.5 699.469,-667.5 699.469,-673.5 693.469,-679.5 687.469,-679.5 687.469,-679.5 567.542,-679.5 567.542,-679.5 561.542,-679.5 555.542,-673.5 555.542,-667.5 555.542,-667.5 555.542,-521.5 555.542,-521.5 555.542,-515.5 561.542,-509.5 567.542,-509.5"/>
<text text-anchor="middle" x="627.505" y="-664.3" font-family="Times,serif" font-size="14.00">Age</text>
<polyline fill="none" stroke="black" points="555.542,-657.5 699.469,-657.5 "/>
<text text-anchor="start" x="563.542" y="-642.3" font-family="Times,serif" font-size="14.00">id :integer</text>
<text text-anchor="start" x="563.542" y="-628.3" font-family="Times,serif" font-size="14.00">name :string</text>
<text text-anchor="start" x="563.542" y="-614.3" font-family="Times,serif" font-size="14.00">age_min :integer</text>
<text text-anchor="start" x="563.542" y="-600.3" font-family="Times,serif" font-size="14.00">age_max :integer</text>
<text text-anchor="start" x="563.542" y="-586.3" font-family="Times,serif" font-size="14.00">ability_xp :integer</text>
<text text-anchor="start" x="563.542" y="-572.3" font-family="Times,serif" font-size="14.00">specialty_xp :integer</text>
<text text-anchor="start" x="563.542" y="-558.3" font-family="Times,serif" font-size="14.00">created_at :datetime</text>
<text text-anchor="start" x="563.542" y="-544.3" font-family="Times,serif" font-size="14.00">updated_at :datetime</text>
<text text-anchor="start" x="563.542" y="-530.3" font-family="Times,serif" font-size="14.00">destiny_points :integer</text>
<text text-anchor="start" x="563.542" y="-516.3" font-family="Times,serif" font-size="14.00">max_benefits :integer</text>
</g>
<!-- Character&#45;&gt;Ability -->
<g id="edge3" class="edge"><title>Character&#45;&gt;Ability</title>
<path fill="none" stroke="#e59f53" d="M189.498,-115.306C187.681,-108.872 185.896,-102.549 184.185,-96.4904"/>
<ellipse fill="none" stroke="#e59f53" cx="190.592" cy="-119.181" rx="4.00001" ry="4.00001"/>
<polygon fill="#e59f53" stroke="#e59f53" points="184.102,-96.1957 185.715,-85.3491 182.743,-91.3838 181.385,-86.5719 181.385,-86.5719 181.385,-86.5719 182.743,-91.3838 177.054,-87.7947 184.102,-96.1957 184.102,-96.1957"/>
</g>
<!-- CharacterMaintenance -->
<g id="node6" class="node"><title>CharacterMaintenance</title>
<polygon fill="none" stroke="black" stroke-dasharray="1,5" points="859.71,-612.5 717.301,-612.5 717.301,-576.5 859.71,-576.5 859.71,-612.5"/>
<text text-anchor="middle" x="788.505" y="-590.3" font-family="Times,serif" font-size="14.00">CharacterMaintenance</text>
</g>
<!-- Gender -->
<g id="node7" class="node"><title>Gender</title>
<path fill="none" stroke="black" d="M163,-365.5C163,-365.5 272.011,-365.5 272.011,-365.5 278.011,-365.5 284.011,-371.5 284.011,-377.5 284.011,-377.5 284.011,-439.5 284.011,-439.5 284.011,-445.5 278.011,-451.5 272.011,-451.5 272.011,-451.5 163,-451.5 163,-451.5 157,-451.5 151,-445.5 151,-439.5 151,-439.5 151,-377.5 151,-377.5 151,-371.5 157,-365.5 163,-365.5"/>
<text text-anchor="middle" x="217.505" y="-436.3" font-family="Times,serif" font-size="14.00">Gender</text>
<polyline fill="none" stroke="black" points="151,-429.5 284.011,-429.5 "/>
<text text-anchor="start" x="159" y="-414.3" font-family="Times,serif" font-size="14.00">id :integer</text>
<text text-anchor="start" x="159" y="-400.3" font-family="Times,serif" font-size="14.00">name :string</text>
<text text-anchor="start" x="159" y="-386.3" font-family="Times,serif" font-size="14.00">created_at :datetime</text>
<text text-anchor="start" x="159" y="-372.3" font-family="Times,serif" font-size="14.00">updated_at :datetime</text>
</g>
<!-- Gender&#45;&gt;Character -->
<g id="edge4" class="edge"><title>Gender&#45;&gt;Character</title>
<path fill="none" stroke="#492bea" d="M217.505,-356.897C217.505,-344.808 217.505,-331.475 217.505,-317.983"/>
<ellipse fill="none" stroke="#492bea" cx="217.505" cy="-361.111" rx="4" ry="4"/>
<polygon fill="#492bea" stroke="#492bea" points="217.505,-317.652 222.005,-307.652 217.505,-312.652 217.505,-307.652 217.505,-307.652 217.505,-307.652 217.505,-312.652 213.005,-307.652 217.505,-317.652 217.505,-317.652"/>
</g>
<!-- House -->
<g id="node8" class="node"><title>House</title>
<path fill="none" stroke="black" d="M314,-344.5C314,-344.5 423.011,-344.5 423.011,-344.5 429.011,-344.5 435.011,-350.5 435.011,-356.5 435.011,-356.5 435.011,-460.5 435.011,-460.5 435.011,-466.5 429.011,-472.5 423.011,-472.5 423.011,-472.5 314,-472.5 314,-472.5 308,-472.5 302,-466.5 302,-460.5 302,-460.5 302,-356.5 302,-356.5 302,-350.5 308,-344.5 314,-344.5"/>
<text text-anchor="middle" x="368.505" y="-457.3" font-family="Times,serif" font-size="14.00">House</text>
<polyline fill="none" stroke="black" points="302,-450.5 435.011,-450.5 "/>
<text text-anchor="start" x="310" y="-435.3" font-family="Times,serif" font-size="14.00">id :integer</text>
<text text-anchor="start" x="310" y="-421.3" font-family="Times,serif" font-size="14.00">name :string</text>
<text text-anchor="start" x="310" y="-407.3" font-family="Times,serif" font-size="14.00">region_id :integer</text>
<text text-anchor="start" x="310" y="-393.3" font-family="Times,serif" font-size="14.00">history :text</text>
<text text-anchor="start" x="310" y="-379.3" font-family="Times,serif" font-size="14.00">user_id :integer</text>
<text text-anchor="start" x="310" y="-365.3" font-family="Times,serif" font-size="14.00">created_at :datetime</text>
<text text-anchor="start" x="310" y="-351.3" font-family="Times,serif" font-size="14.00">updated_at :datetime</text>
</g>
<!-- House&#45;&gt;Character -->
<g id="edge5" class="edge"><title>House&#45;&gt;Character</title>
<path fill="none" stroke="#28fa43" d="M313.657,-338.123C306.061,-328.514 298.163,-318.523 290.303,-308.582"/>
<ellipse fill="none" stroke="#28fa43" cx="316.163" cy="-341.292" rx="4.00002" ry="4.00002"/>
<polygon fill="#28fa43" stroke="#28fa43" points="290.217,-308.473 287.545,-297.837 287.116,-304.551 284.015,-300.628 284.015,-300.628 284.015,-300.628 287.116,-304.551 280.485,-303.419 290.217,-308.473 290.217,-308.473"/>
</g>
<!-- HouseMaintenance -->
<g id="node9" class="node"><title>HouseMaintenance</title>
<polygon fill="none" stroke="black" stroke-dasharray="1,5" points="1001.57,-612.5 877.436,-612.5 877.436,-576.5 1001.57,-576.5 1001.57,-612.5"/>
<text text-anchor="middle" x="939.505" y="-590.3" font-family="Times,serif" font-size="14.00">HouseMaintenance</text>
</g>
<!-- Region -->
<g id="node10" class="node"><title>Region</title>
<path fill="none" stroke="black" d="M250,-551.5C250,-551.5 359.011,-551.5 359.011,-551.5 365.011,-551.5 371.011,-557.5 371.011,-563.5 371.011,-563.5 371.011,-625.5 371.011,-625.5 371.011,-631.5 365.011,-637.5 359.011,-637.5 359.011,-637.5 250,-637.5 250,-637.5 244,-637.5 238,-631.5 238,-625.5 238,-625.5 238,-563.5 238,-563.5 238,-557.5 244,-551.5 250,-551.5"/>
<text text-anchor="middle" x="304.505" y="-622.3" font-family="Times,serif" font-size="14.00">Region</text>
<polyline fill="none" stroke="black" points="238,-615.5 371.011,-615.5 "/>
<text text-anchor="start" x="246" y="-600.3" font-family="Times,serif" font-size="14.00">id :integer</text>
<text text-anchor="start" x="246" y="-586.3" font-family="Times,serif" font-size="14.00">name :string</text>
<text text-anchor="start" x="246" y="-572.3" font-family="Times,serif" font-size="14.00">created_at :datetime</text>
<text text-anchor="start" x="246" y="-558.3" font-family="Times,serif" font-size="14.00">updated_at :datetime</text>
</g>
<!-- Region&#45;&gt;House -->
<g id="edge6" class="edge"><title>Region&#45;&gt;House</title>
<path fill="none" stroke="#352fb5" d="M321.912,-543.457C328.45,-524.659 336.023,-502.887 343.138,-482.43"/>
<ellipse fill="none" stroke="#352fb5" cx="320.502" cy="-547.509" rx="4.00001" ry="4.00001"/>
<polygon fill="#352fb5" stroke="#352fb5" points="343.193,-482.272 350.729,-474.306 344.836,-477.55 346.478,-472.827 346.478,-472.827 346.478,-472.827 344.836,-477.55 342.228,-471.349 343.193,-482.272 343.193,-482.272"/>
</g>
<!-- Specialty -->
<g id="node11" class="node"><title>Specialty</title>
<path fill="none" stroke="black" d="M1031.89,-537.5C1031.89,-537.5 1175.12,-537.5 1175.12,-537.5 1181.12,-537.5 1187.12,-543.5 1187.12,-549.5 1187.12,-549.5 1187.12,-639.5 1187.12,-639.5 1187.12,-645.5 1181.12,-651.5 1175.12,-651.5 1175.12,-651.5 1031.89,-651.5 1031.89,-651.5 1025.89,-651.5 1019.89,-645.5 1019.89,-639.5 1019.89,-639.5 1019.89,-549.5 1019.89,-549.5 1019.89,-543.5 1025.89,-537.5 1031.89,-537.5"/>
<text text-anchor="middle" x="1103.51" y="-636.3" font-family="Times,serif" font-size="14.00">Specialty</text>
<polyline fill="none" stroke="black" points="1019.89,-629.5 1187.12,-629.5 "/>
<text text-anchor="start" x="1027.89" y="-614.3" font-family="Times,serif" font-size="14.00">id :integer</text>
<text text-anchor="start" x="1027.89" y="-600.3" font-family="Times,serif" font-size="14.00">character_id :integer</text>
<text text-anchor="start" x="1027.89" y="-586.3" font-family="Times,serif" font-size="14.00">specialty_name_id :integer</text>
<text text-anchor="start" x="1027.89" y="-572.3" font-family="Times,serif" font-size="14.00">ability_id :integer</text>
<text text-anchor="start" x="1027.89" y="-558.3" font-family="Times,serif" font-size="14.00">created_at :datetime</text>
<text text-anchor="start" x="1027.89" y="-544.3" font-family="Times,serif" font-size="14.00">updated_at :datetime</text>
</g>
<!-- SpecialtyName -->
<g id="node12" class="node"><title>SpecialtyName</title>
<path fill="none" stroke="black" d="M1216.89,-537.5C1216.89,-537.5 1346.12,-537.5 1346.12,-537.5 1352.12,-537.5 1358.12,-543.5 1358.12,-549.5 1358.12,-549.5 1358.12,-639.5 1358.12,-639.5 1358.12,-645.5 1352.12,-651.5 1346.12,-651.5 1346.12,-651.5 1216.89,-651.5 1216.89,-651.5 1210.89,-651.5 1204.89,-645.5 1204.89,-639.5 1204.89,-639.5 1204.89,-549.5 1204.89,-549.5 1204.89,-543.5 1210.89,-537.5 1216.89,-537.5"/>
<text text-anchor="middle" x="1281.51" y="-636.3" font-family="Times,serif" font-size="14.00">SpecialtyName</text>
<polyline fill="none" stroke="black" points="1204.89,-629.5 1358.12,-629.5 "/>
<text text-anchor="start" x="1212.89" y="-614.3" font-family="Times,serif" font-size="14.00">id :integer</text>
<text text-anchor="start" x="1212.89" y="-600.3" font-family="Times,serif" font-size="14.00">name :string</text>
<text text-anchor="start" x="1212.89" y="-586.3" font-family="Times,serif" font-size="14.00">description :text</text>
<text text-anchor="start" x="1212.89" y="-572.3" font-family="Times,serif" font-size="14.00">created_at :datetime</text>
<text text-anchor="start" x="1212.89" y="-558.3" font-family="Times,serif" font-size="14.00">updated_at :datetime</text>
<text text-anchor="start" x="1212.89" y="-544.3" font-family="Times,serif" font-size="14.00">ability_name_id :integer</text>
</g>
<!-- User -->
<g id="node13" class="node"><title>User</title>
<path fill="none" stroke="black" d="M401.204,-523.5C401.204,-523.5 525.807,-523.5 525.807,-523.5 531.807,-523.5 537.807,-529.5 537.807,-535.5 537.807,-535.5 537.807,-653.5 537.807,-653.5 537.807,-659.5 531.807,-665.5 525.807,-665.5 525.807,-665.5 401.204,-665.5 401.204,-665.5 395.204,-665.5 389.204,-659.5 389.204,-653.5 389.204,-653.5 389.204,-535.5 389.204,-535.5 389.204,-529.5 395.204,-523.5 401.204,-523.5"/>
<text text-anchor="middle" x="463.505" y="-650.3" font-family="Times,serif" font-size="14.00">User</text>
<polyline fill="none" stroke="black" points="389.204,-643.5 537.807,-643.5 "/>
<text text-anchor="start" x="397.204" y="-628.3" font-family="Times,serif" font-size="14.00">id :integer</text>
<text text-anchor="start" x="397.204" y="-614.3" font-family="Times,serif" font-size="14.00">first_name :string</text>
<text text-anchor="start" x="397.204" y="-600.3" font-family="Times,serif" font-size="14.00">last_name :string</text>
<text text-anchor="start" x="397.204" y="-586.3" font-family="Times,serif" font-size="14.00">email :string</text>
<text text-anchor="start" x="397.204" y="-572.3" font-family="Times,serif" font-size="14.00">password_digest :string</text>
<text text-anchor="start" x="397.204" y="-558.3" font-family="Times,serif" font-size="14.00">is_admin :boolean</text>
<text text-anchor="start" x="397.204" y="-544.3" font-family="Times,serif" font-size="14.00">created_at :datetime</text>
<text text-anchor="start" x="397.204" y="-530.3" font-family="Times,serif" font-size="14.00">updated_at :datetime</text>
</g>
<!-- User&#45;&gt;Character -->
<g id="edge8" class="edge"><title>User&#45;&gt;Character</title>
<path fill="none" stroke="#7652a9" d="M475.834,-513.198C479.638,-461.059 476.249,-393.796 444.505,-344 410.366,-290.447 345.322,-257.271 293.58,-238.237"/>
<polygon fill="#7652a9" stroke="#7652a9" points="475.814,-513.449 470.5,-523.041 475.399,-518.431 474.984,-523.414 474.984,-523.414 474.984,-523.414 475.399,-518.431 479.469,-523.787 475.814,-513.449 475.814,-513.449"/>
<polygon fill="#7652a9" stroke="#7652a9" points="293.501,-238.209 285.597,-230.608 288.793,-236.528 284.084,-234.846 284.084,-234.846 284.084,-234.846 288.793,-236.528 282.571,-239.084 293.501,-238.209 293.501,-238.209"/>
</g>
<!-- User&#45;&gt;House -->
<g id="edge7" class="edge"><title>User&#45;&gt;House</title>
<path fill="none" stroke="#9c3096" d="M423.459,-515.936C417.594,-504.576 411.573,-492.916 405.767,-481.67"/>
<ellipse fill="none" stroke="#9c3096" cx="425.484" cy="-519.858" rx="4.00002" ry="4.00002"/>
<polygon fill="#9c3096" stroke="#9c3096" points="405.751,-481.64 405.162,-470.689 403.458,-477.197 401.164,-472.754 401.164,-472.754 401.164,-472.754 403.458,-477.197 397.165,-474.818 405.751,-481.64 405.751,-481.64"/>
</g>
</g>
</svg>
